<svg width="74" height="37" viewBox="0 0 74 37" fill="none" xmlns="http://www.w3.org/2000/svg">
<g clip-path="url(#clip0_483_242)">
<path d="M22.2091 18.2802C13.1567 29.8619 7.92283 36.5677 7.92774 36.578C7.93387 36.593 9.07584 36.5953 17.5517 36.5953H27.1682V33.6723V30.7492H29.7637H32.358L32.3555 33.6688L32.3543 36.5896L36.1298 36.593C39.1423 36.5953 39.9065 36.593 39.9151 36.5815C39.92 36.5734 39.9249 35.2581 39.9249 33.6573V30.7492H42.5682H45.2115V33.6723V36.5953L55.1985 36.593C64.0656 36.5896 65.1867 36.5873 65.1892 36.5723C65.1916 36.5631 58.7642 28.3314 50.9079 18.2802L36.6229 0.00538635L36.5603 0.00193405L36.4965 -0.000366211L22.2091 18.2802ZM50.1596 18.4218C57.6456 28.153 63.77 36.1154 63.77 36.1189C63.77 36.1212 59.7406 36.1235 54.8158 36.1235H45.8616V29.9091V23.6948H36.1899H26.5181V29.9045C26.5193 33.3201 26.5169 36.1166 26.5144 36.1189C26.512 36.1212 22.6359 36.1223 17.9025 36.1212L9.29417 36.1177L13.9442 30.0737L18.5943 24.0296V23.9663V23.9031L18.6458 23.8996C18.6948 23.8961 18.6998 23.8927 18.7807 23.7868C18.8261 23.727 18.8641 23.666 18.8641 23.6522C18.8641 23.6349 18.8715 23.6257 18.8862 23.6257C18.8997 23.6246 21.8349 19.8177 27.719 12.1694C32.5665 5.86875 36.5358 0.716583 36.5407 0.721188C36.5456 0.726944 42.6737 8.69168 50.1596 18.4218Z" fill="black"/>
<path d="M35.4348 11.0455C34.9993 11.6082 32.8245 14.3966 30.6007 17.2437C28.3769 20.0908 26.5603 22.427 26.564 22.4362C26.5677 22.4442 26.591 22.4534 26.6155 22.458C26.6731 22.4672 45.8388 22.4638 45.9136 22.4546L45.97 22.4477L45.4929 21.8377C45.2304 21.5017 45.0072 21.2129 44.9961 21.1944C44.9863 21.1749 44.9679 21.1519 44.9556 21.1427C44.9434 21.1323 42.9845 18.627 40.6012 15.5739C37.6574 11.8039 36.2615 10.0247 36.2468 10.0247C36.232 10.0247 35.9683 10.3561 35.4348 11.0455Z" fill="black"/>
<path d="M46.8408 23.7048C46.8309 23.7221 46.8322 23.8521 46.8555 27.1894C46.869 29.0307 46.8763 30.5521 46.8727 30.5682L46.8665 30.5993L47.0186 30.6062C47.1008 30.6108 48.3262 30.6131 49.7392 30.6108C52.0121 30.6073 52.309 30.605 52.3114 30.5901C52.3139 30.5809 51.1118 29.0319 49.6411 27.1492C47.1094 23.9074 46.9646 23.7255 46.9266 23.7221C46.9058 23.7198 46.8825 23.7129 46.8763 23.7071C46.8616 23.6945 46.8481 23.6933 46.8408 23.7048Z" fill="black"/>
<path d="M25.4847 23.7805C25.4822 23.7897 24.2912 25.3203 22.8377 27.1811C21.3841 29.0431 20.1943 30.5749 20.1943 30.5864C20.1943 30.6048 20.3513 30.6059 22.872 30.6094L25.5497 30.6117L25.546 27.2076C25.5423 24.0383 25.5411 23.8012 25.5215 23.7839C25.4969 23.7598 25.4896 23.7598 25.4847 23.7805Z" fill="black"/>
</g>
<defs>
<clipPath id="clip0_483_242">
<rect width="73.1913" height="36.5957" fill="white"/>
</clipPath>
</defs>
</svg>
